<svg xmlns="http://www.w3.org/2000/svg" viewBox="0 0 19.842 19.842">
  <defs>
    <style>
      .cls-1 {
        fill: #ea5046;
      }
    </style>
  </defs>
  <g id="attachikon" transform="translate(-19 -755.158)">
    <path id="Path_272" data-name="Path 272" class="cls-1" d="M6.945,19.842a6.257,6.257,0,0,1-4.63-1.984A6.388,6.388,0,0,1,0,12.9a6.635,6.635,0,0,1,.5-2.48A5.718,5.718,0,0,1,1.654,8.433L4.961,5.126A3.985,3.985,0,0,1,7.937,3.968a4.517,4.517,0,0,1,3.142,1.323A4.246,4.246,0,0,1,12.4,8.6a3.985,3.985,0,0,1-1.157,2.976L9.425,13.228a1.263,1.263,0,0,1-.827.331,1.773,1.773,0,0,1-.992-.331,2.35,2.35,0,0,1-.331-.992,2.35,2.35,0,0,1,.331-.992L9.425,9.425a1,1,0,0,0,.5-.992A2.02,2.02,0,0,0,9.26,6.945,1.927,1.927,0,0,0,8.1,6.614a2.39,2.39,0,0,0-1.157.331L3.472,10.252A4.575,4.575,0,0,0,2.646,12.9a4.837,4.837,0,0,0,1.323,3.142,3.431,3.431,0,0,0,1.654.992,2.858,2.858,0,0,0,1.654.165c.5-.165.992-.165,1.323-.331A3.459,3.459,0,0,0,9.59,16.2L16.2,9.59a3.627,3.627,0,0,0,1.157-2.811,4.332,4.332,0,0,0-1.488-3.142,7.363,7.363,0,0,0-1.984-.992H12.4a3.5,3.5,0,0,0-1.157.5,2.1,2.1,0,0,1-.992.165,1.1,1.1,0,0,1-.827-.661c-.165-.165-.165-.5-.165-.992A2.9,2.9,0,0,1,9.921.827,6.512,6.512,0,0,1,13.228,0a6.121,6.121,0,0,1,4.3,1.654,6.977,6.977,0,0,1,2.315,4.961,6.471,6.471,0,0,1-1.819,4.8l-6.614,6.614A6.106,6.106,0,0,1,6.945,19.842Z" transform="translate(19 755.158)"/>
  </g>
</svg>
