<svg xmlns="http://www.w3.org/2000/svg" viewBox="0 0 53 56">
  <defs>
    <style>
      .cls-1, .cls-5 {
        fill: none;
      }

      .cls-1 {
        stroke: #ea5046;
      }

      .cls-2 {
        fill: #ea5046;
      }

      .cls-3 {
        fill: #fff;
      }

      .cls-4 {
        stroke: none;
      }
    </style>
  </defs>
  <g id="Group_29" data-name="Group 29" transform="translate(-155 -13)">
    <g id="Symbol_280" data-name="Symbol 280" transform="translate(139 -339)">
      <g id="Ellipse_234" data-name="Ellipse 234" class="cls-1" transform="translate(16 352)">
        <circle class="cls-4" cx="20" cy="20" r="20"/>
        <circle class="cls-5" cx="20" cy="20" r="19.5"/>
      </g>
      <path id="Union_44" data-name="Union 44" class="cls-1" d="M0,370v-2c0-2.2,3.6-4,8-4s8,1.8,8,4v2Zm4-12a4,4,0,1,1,4,4A4,4,0,0,1,4,358Z" transform="translate(28 10)"/>
    </g>
    <g id="Symbol_216_2" data-name="Symbol 216 – 2" transform="translate(152 -323)">
      <circle id="Ellipse_234-2" data-name="Ellipse 234" class="cls-2" cx="20" cy="20" r="20" transform="translate(16 352)"/>
      <path id="Union_44-2" data-name="Union 44" class="cls-3" d="M0,370v-2c0-2.2,3.6-4,8-4s8,1.8,8,4v2Zm4-12a4,4,0,1,1,4,4A4,4,0,0,1,4,358Z" transform="translate(28 10)"/>
    </g>
  </g>
</svg>
