<svg xmlns="http://www.w3.org/2000/svg" viewBox="0 0 301 80">
  <defs>
    <style>
      .cls-1 {
        fill: #e0dcdf;
      }

      .cls-2 {
        fill: #fff;
      }
    </style>
  </defs>
  <g id="Group_32" data-name="Group 32" transform="translate(-55 -405.898)">
    <g id="Message" transform="translate(78 562.898)">
      <path id="Rectangle_251" data-name="Rectangle 251" class="cls-1" d="M10,0H280a0,0,0,0,1,0,0V70a10,10,0,0,1-10,10H10A10,10,0,0,1,0,70V10A10,10,0,0,1,10,0Z" transform="translate(-23 -157)"/>
    </g>
    <g id="avatar" transform="translate(359 458.096)">
      <g id="Group_25" data-name="Group 25" transform="translate(-19 6)">
        <path id="Path_271" data-name="Path 271" class="cls-1" d="M8,0A8,8,0,1,1,0,8,8,8,0,0,1,8,0Z"/>
        <path id="Union_29" data-name="Union 29" class="cls-2" d="M0,6V5.25c0-.825,1.35-1.5,3-1.5s3,.675,3,1.5V6ZM1.5,1.5A1.5,1.5,0,1,1,3,3,1.5,1.5,0,0,1,1.5,1.5Z" transform="translate(5 4.5)"/>
      </g>
    </g>
  </g>
</svg>
