<svg xmlns="http://www.w3.org/2000/svg" viewBox="0 0 304 165.606">
  <defs>
    <style>
      .cls-1 {
        fill: #ea5046;
      }

      .cls-2 {
        fill: #fff;
      }
    </style>
  </defs>
  <g id="talebobbelred" transform="translate(-9 -502.953)">
    <g id="Message" transform="translate(33 502.953)">
      <path id="Rectangle_250" data-name="Rectangle 250" class="cls-1" d="M0,0H270a10,10,0,0,1,10,10V155.606a10,10,0,0,1-10,10H10a10,10,0,0,1-10-10V0A0,0,0,0,1,0,0Z"/>
    </g>
    <g id="avatar" transform="translate(9 646.096)">
      <circle id="Ellipse_152" data-name="Ellipse 152" class="cls-1" cx="8" cy="8" r="8"/>
      <path id="Union_29" data-name="Union 29" class="cls-2" d="M0,6V5.25c0-.825,1.35-1.5,3-1.5s3,.675,3,1.5V6ZM1.5,1.5A1.5,1.5,0,1,1,3,3,1.5,1.5,0,0,1,1.5,1.5Z" transform="translate(5 4.5)"/>
    </g>
  </g>
</svg>
