<svg xmlns="http://www.w3.org/2000/svg" viewBox="0 0 48 36.039">
  <defs>
    <style>
      .cls-1 {
        fill: #b8b8b8;
      }
    </style>
  </defs>
  <path id="Path_178" data-name="Path 178" class="cls-1" d="M0,32.777V2.951A3.067,3.067,0,0,1,.932.777,2.953,2.953,0,0,1,2.951,0H20.194a1.764,1.764,0,0,1,1.243.466,2.088,2.088,0,0,1,.932,1.087L23.922,5.9H44.893a3.067,3.067,0,0,1,2.175.932A2.82,2.82,0,0,1,48,9.01V32.932a3.067,3.067,0,0,1-.932,2.175,2.82,2.82,0,0,1-2.175.932H2.951a3.067,3.067,0,0,1-2.175-.932A4.186,4.186,0,0,1,0,32.777Z"/>
</svg>
