<svg xmlns="http://www.w3.org/2000/svg" viewBox="0 0 46 46">
  <defs>
    <style>
      .cls-1 {
        fill: #b8b8b8;
      }
    </style>
  </defs>
  <path id="Path_125" data-name="Path 125" class="cls-1" d="M16.1,46A14.506,14.506,0,0,1,5.367,41.4,14.809,14.809,0,0,1,0,29.9a15.381,15.381,0,0,1,1.15-5.75,13.255,13.255,0,0,1,2.683-4.6L11.5,11.883A9.238,9.238,0,0,1,18.4,9.2a10.473,10.473,0,0,1,7.283,3.067,9.843,9.843,0,0,1,3.067,7.667,9.238,9.238,0,0,1-2.683,6.9L21.85,30.667a2.928,2.928,0,0,1-1.917.767,4.11,4.11,0,0,1-2.3-.767,5.448,5.448,0,0,1-.767-2.3,5.448,5.448,0,0,1,.767-2.3L21.85,21.85A2.318,2.318,0,0,0,23,19.55a4.683,4.683,0,0,0-1.533-3.45,4.468,4.468,0,0,0-2.683-.767A5.54,5.54,0,0,0,16.1,16.1L8.05,23.767A10.606,10.606,0,0,0,6.133,29.9c0,2.683,1.15,4.983,3.067,7.283a7.954,7.954,0,0,0,3.833,2.3,6.627,6.627,0,0,0,3.833.383c1.15-.383,2.3-.383,3.067-.767a8.019,8.019,0,0,0,2.3-1.533L37.567,22.233a8.407,8.407,0,0,0,2.683-6.517c0-2.683-1.15-4.983-3.45-7.283a17.07,17.07,0,0,0-4.6-2.3H28.75a8.117,8.117,0,0,0-2.683,1.15,4.862,4.862,0,0,1-2.3.383A2.547,2.547,0,0,1,21.85,6.133c-.383-.383-.383-1.15-.383-2.3A6.73,6.73,0,0,1,23,1.917,15.1,15.1,0,0,1,30.667,0a14.191,14.191,0,0,1,9.967,3.833C44.083,7.283,46,11.117,46,15.333A15,15,0,0,1,41.783,26.45L26.45,41.783A14.155,14.155,0,0,1,16.1,46Z"/>
</svg>
