<svg id="Group_43" data-name="Group 43" xmlns="http://www.w3.org/2000/svg" viewBox="0 0 375 100">
  <defs>
    <style>
      .cls-1, .cls-6 {
        fill: #fffdfd;
      }

      .cls-2, .cls-6 {
        font-size: 20px;
        font-family: Arial-BoldMT, Arial;
        font-weight: 700;
        letter-spacing: 0.013em;
      }

      .cls-3 {
        fill: none;
      }

      .cls-4 {
        fill: #ea5045;
      }

      .cls-5 {
        fill-rule: evenodd;
      }

      .cls-7 {
        opacity: 0.996;
      }
    </style>
  </defs>
  <rect id="Status_bar" data-name="Status bar" class="cls-1" width="375" height="56" transform="translate(0 44)"/>
  <text id="December_2018" data-name="December 2018" class="cls-2" transform="translate(50 79)"><tspan x="0" y="0">December 2018</tspan></text>
  <g id="Icon_Menu_Filled" data-name="Icon / Menu / Filled" transform="translate(-156 151)">
    <rect id="Box" class="cls-3" width="24" height="24" transform="translate(169 -91)"/>
    <path id="Icon_Menu" data-name="Icon / Menu" class="cls-4" d="M99-1400h18v-2H99Zm0-5h18v-2H99Zm0-7v2h18v-2Z" transform="translate(73 1327)"/>
  </g>
  <g id="Symbol_19_3" data-name="Symbol 19 – 3" transform="translate(-762 -257)">
    <path id="Path_1" data-name="Path 1" class="cls-5" d="M15,14H10a2,2,0,0,1-4,0H1a.961.961,0,0,1-.9-.7,1.068,1.068,0,0,1,.3-1.1A4.026,4.026,0,0,0,2,9V6A6,6,0,0,1,14,6V9a4.026,4.026,0,0,0,1.6,3.2.947.947,0,0,1,.3,1.1A.961.961,0,0,1,15,14Z" transform="translate(1101.938 321)"/>
  </g>
  <rect id="Status_bar-2" data-name="Status bar" class="cls-4" width="375" height="100"/>
  <text id="_04.04.02_Animationsopgaven" data-name="04.04.02 Animationsopgaven" class="cls-6" transform="translate(50 79)"><tspan x="0" y="0">04.04.02 Animationsopgaven</tspan></text>
  <g id="Icon_Keyboard_Arrow_-_Left_Filled" data-name="Icon / Keyboard Arrow - Left / Filled" transform="translate(-968 113)">
    <g id="Icon_Keyboard_Arrow_-_Left_Filled-2" data-name="Icon / Keyboard Arrow - Left / Filled" class="cls-7" transform="translate(169 -1397)">
      <rect id="Box-2" data-name="Box" class="cls-3" width="24" height="24" transform="translate(812 1344)"/>
      <path id="Icon_Keyboard_Arrow_-_Up_Dark" data-name="Icon / Keyboard Arrow - Up / Dark" class="cls-1" d="M10.6,7.4,6,2.8,1.4,7.4,0,6,6,0l6,6Z" transform="translate(820.3 1361.7) rotate(-90)"/>
    </g>
  </g>
</svg>
