<svg id="Layer_1" data-name="Layer 1" xmlns="http://www.w3.org/2000/svg" width="180mm" height="73.06mm" viewBox="0 0 510.24 207.11"><defs><style>.cls-1{fill:#3f3140;}</style></defs><title>Artboard 1</title><path class="cls-1" d="M439.71,13.4H356.32V34.34h82.21c28.25,0,36.91,8.9,39,22.77H393.16c-31.34,0-45.3,12.13-45.3,39.35,0,27.44,14.15,39.67,45.88,39.67h104.6V66c0-35.37-19.17-52.58-58.63-52.58m38.23,101.79H396c-25.72,0-26.81-5.75-26.81-18.73,0-12.51,2.67-18.4,27.25-18.4h81.53v37.13Z"/><path class="cls-1" d="M194.75,91.46h83.67c31.31,0,45.27-12,45.27-38.86,0-27.48-13.7-39.2-45.86-39.2H233c-52.84,0-60.11,29.5-60.11,61.36s7.27,61.37,60.11,61.37h85.65v-20.8H234.5c-28.87,0-37.11-7.71-39.75-23.87M234.5,33.73h41.11c24.27,0,26.8,5.75,26.8,18.87,0,12.46-2.56,17.92-27.24,17.92h-81.5c.61-25.88,7.41-36.79,40.83-36.79"/><polygon class="cls-1" points="132.24 13.39 32.59 108.73 32.59 13.39 11.89 13.39 11.89 136.15 33.73 136.15 81.58 90.32 135.98 136.15 168.68 136.15 96.9 76.07 162.14 13.39 132.24 13.39 132.24 13.39"/><polygon class="cls-1" points="17.1 167.69 17.1 177.95 17.17 177.95 23.76 167.69 29.41 167.69 22.39 178.67 30.2 193.3 24.34 193.3 19.02 182.79 17.1 185.7 17.1 193.3 11.89 193.3 11.89 167.69 17.1 167.69 17.1 167.69"/><path class="cls-1" d="M33.61,191.87c-2.43-2.23-2.82-6.32-2.82-11.37,0-7.79,1-13.31,8.79-13.31a9.62,9.62,0,0,1,4.38.86l.94-2.19,1.74.75-1.09,2.51c2.43,2.23,2.83,6.31,2.83,11.38,0,7.79-1,13.3-8.8,13.3A9.65,9.65,0,0,1,35.2,193l-.94,2.18-1.74-.75,1.09-2.51Zm8.5-19.59A2.65,2.65,0,0,0,39.58,171C36.5,171,36,173.64,36,180.5a43.14,43.14,0,0,0,.21,5.31h.07l5.83-13.53ZM37,188.68A2.57,2.57,0,0,0,39.58,190c3.08,0,3.58-2.62,3.58-9.5a44,44,0,0,0-.21-5.32h-.08L37,188.68Z"/><path class="cls-1" d="M51.45,167.69h8.72c4.27,0,7.35,1.58,7.35,6.49,0,2.76-1.34,4.88-3.91,5.6v.07c2.86.39,4.71,2.55,4.71,6,0,4-2,7.49-8.07,7.49h-8.8V167.69Zm5.21,10.51h1.49c2.86,0,4.16-1,4.16-3.37s-1.19-3.34-3.76-3.34H56.66v6.71Zm0,11.3h2c2.5,0,4.2-.9,4.2-3.87s-1.7-3.84-4-3.84H56.66v7.71Z"/><polygon class="cls-1" points="86.02 167.69 86.02 171.93 76.79 171.93 76.79 177.95 85.47 177.95 85.47 182.19 76.79 182.19 76.79 189.07 86.38 189.07 86.38 193.3 71.58 193.3 71.58 167.69 86.02 167.69 86.02 167.69"/><polygon class="cls-1" points="95 167.69 101.29 185.23 101.36 185.23 101.36 167.69 106.14 167.69 106.14 193.3 100.2 193.3 93.84 175.37 93.77 175.37 93.77 193.3 88.99 193.3 88.99 167.69 95 167.69 95 167.69"/><polygon class="cls-1" points="109.75 167.69 114.97 167.69 114.97 177.48 121.05 177.48 121.05 167.69 126.27 167.69 126.27 193.3 121.05 193.3 121.05 181.93 114.97 181.93 114.97 193.3 109.75 193.3 109.75 167.69 109.75 167.69"/><path class="cls-1" d="M134.91,167.69h6.45l6.84,25.61h-5.43l-1.19-5.41H134.7l-1.2,5.41h-5.43l6.84-25.61Zm.69,16h5.06l-2.49-11.51h-.07l-2.5,11.51Z"/><polygon class="cls-1" points="153.56 167.69 157.21 186.63 157.31 186.63 161.15 167.69 166.55 167.69 160.61 193.3 153.92 193.3 147.98 167.69 153.56 167.69 153.56 167.69"/><polygon class="cls-1" points="174.47 167.69 180.77 185.23 180.84 185.23 180.84 167.69 185.62 167.69 185.62 193.3 179.69 193.3 173.31 175.37 173.24 175.37 173.24 193.3 168.46 193.3 168.46 167.69 174.47 167.69 174.47 167.69"/><path class="cls-1" d="M193.44,185.3v.76c0,2.4.69,3.94,3.43,3.94a3,3,0,0,0,3.12-3.16c0-2.33-1.2-3.19-4.63-4.37-4.64-1.58-6.77-3.48-6.77-7.75,0-5,3.08-7.53,8-7.53,4.63,0,8,2,8,6.88v.72h-5c0-2.4-.83-3.8-2.82-3.8a2.66,2.66,0,0,0-3,3c0,1.58.47,2.54,2.68,3.48l4,1.72c3.9,1.69,4.91,3.66,4.91,6.78,0,5.42-3.32,7.85-9,7.85-5.89,0-8.22-2.72-8.22-7.46v-1Z"/><polygon class="cls-1" points="231.15 167.69 231.15 171.93 221.93 171.93 221.93 177.95 230.62 177.95 230.62 182.19 221.93 182.19 221.93 189.07 231.51 189.07 231.51 193.3 216.71 193.3 216.71 167.69 231.15 167.69 231.15 167.69"/><path class="cls-1" d="M234.11,167.69h9.63c4.28,0,6.89,2.22,6.89,6.6,0,3.41-1.38,5.7-4.31,6.31v.07c3.54.47,4.09,2.41,4.16,7.83,0,2.69.18,4.09,1.15,4.59v.21H246a4.84,4.84,0,0,1-.65-2.69l-.14-4.91c-.08-2-1-3.23-3.09-3.23h-2.78V193.3h-5.22V167.69Zm5.22,11.19h2.17c2.5,0,3.92-1.08,3.92-3.84,0-2.37-1.28-3.55-3.63-3.55h-2.46v7.39Z"/><polygon class="cls-1" points="254.24 167.69 259.46 167.69 259.46 177.48 265.54 177.48 265.54 167.69 270.75 167.69 270.75 193.3 265.54 193.3 265.54 181.93 259.46 181.93 259.46 193.3 254.24 193.3 254.24 167.69 254.24 167.69"/><polygon class="cls-1" points="278.24 167.69 281.89 186.63 282 186.63 285.85 167.69 291.23 167.69 285.3 193.3 278.6 193.3 272.66 167.69 278.24 167.69 278.24 167.69"/><polygon class="cls-1" points="307.59 167.69 307.59 171.93 298.36 171.93 298.36 177.95 307.05 177.95 307.05 182.19 298.36 182.19 298.36 189.07 307.95 189.07 307.95 193.3 293.16 193.3 293.16 167.69 307.59 167.69 307.59 167.69"/><path class="cls-1" d="M310.56,167.69h9.63c4.27,0,6.88,2.22,6.88,6.6,0,3.41-1.38,5.7-4.32,6.31v.07c3.55.47,4.09,2.41,4.17,7.83.05,2.69.18,4.09,1.16,4.59v.21h-5.65a5,5,0,0,1-.66-2.69l-.13-4.91c-.08-2-1-3.23-3.08-3.23h-2.79V193.3h-5.21V167.69Zm5.21,11.19H318c2.49,0,3.9-1.08,3.9-3.84,0-2.37-1.26-3.55-3.61-3.55h-2.47v7.39Z"/><polygon class="cls-1" points="334.56 167.69 338.21 186.63 338.32 186.63 342.16 167.69 347.55 167.69 341.61 193.3 334.92 193.3 328.98 167.69 334.56 167.69 334.56 167.69"/><path class="cls-1" d="M353.66,185.3v.76c0,2.4.69,3.94,3.45,3.94a3,3,0,0,0,3.11-3.16c0-2.33-1.19-3.19-4.63-4.37-4.64-1.58-6.77-3.48-6.77-7.75,0-5,3.08-7.53,8-7.53,4.63,0,8,2,8,6.88v.72h-5c0-2.4-.82-3.8-2.81-3.8a2.66,2.66,0,0,0-3,3c0,1.58.47,2.54,2.68,3.48l4,1.72c3.9,1.69,4.92,3.66,4.92,6.78,0,5.42-3.33,7.85-9,7.85-5.9,0-8.21-2.72-8.21-7.46v-1Z"/><path class="cls-1" d="M373.28,167.69h6.45l6.84,25.61h-5.43l-1.2-5.41h-6.88l-1.19,5.41h-5.43l6.84-25.61Zm.69,16H379l-2.49-11.51h-.08L374,183.65Z"/><polygon class="cls-1" points="393.56 167.69 393.56 177.95 393.63 177.95 400.22 167.69 405.86 167.69 398.83 178.67 406.65 193.3 400.8 193.3 395.47 182.79 393.56 185.7 393.56 193.3 388.34 193.3 388.34 167.69 393.56 167.69 393.56 167.69"/><path class="cls-1" d="M412.81,167.69h6.45l6.84,25.61h-5.43l-1.2-5.41H412.6l-1.2,5.41H406l6.84-25.61Zm.69,16h5.07l-2.5-11.51H416l-2.5,11.51Z"/><path class="cls-1" d="M428.15,167.69h8.55c7.24,0,8.54,4.91,8.54,12.45,0,9.07-2,13.16-8.87,13.16h-8.22V167.69Zm5.22,21.81h2.31c3.62,0,4.35-2.26,4.35-9.22,0-5.81-.48-8.79-4.44-8.79h-2.22v18Z"/><polygon class="cls-1" points="463.13 167.69 463.13 171.93 453.89 171.93 453.89 177.95 462.57 177.95 462.57 182.19 453.89 182.19 453.89 189.07 463.49 189.07 463.49 193.3 448.68 193.3 448.68 167.69 463.13 167.69 463.13 167.69"/><polygon class="cls-1" points="466.19 167.69 473.94 167.69 477.63 185.77 477.7 185.77 481.43 167.69 489.14 167.69 489.14 193.3 484.37 193.3 484.37 172.85 484.29 172.85 479.69 193.3 475.63 193.3 471.04 172.85 470.98 172.85 470.98 193.3 466.19 193.3 466.19 167.69 466.19 167.69"/><polygon class="cls-1" points="493.13 193.3 493.13 167.69 498.33 167.69 498.33 193.3 493.13 193.3 493.13 193.3"/></svg>
