<svg xmlns="http://www.w3.org/2000/svg" viewBox="0 0 15.918 16">
  <defs>
    <style>
      .cls-1 {
        fill: #fffdfd;
        fill-rule: evenodd;
      }
    </style>
  </defs>
  <g id="Symbol_19_3" data-name="Symbol 19 – 3" transform="translate(-1102 -321)">
    <path id="Path_1" data-name="Path 1" class="cls-1" d="M15,14H10a2,2,0,0,1-4,0H1a.961.961,0,0,1-.9-.7,1.068,1.068,0,0,1,.3-1.1A4.026,4.026,0,0,0,2,9V6A6,6,0,0,1,14,6V9a4.026,4.026,0,0,0,1.6,3.2.947.947,0,0,1,.3,1.1A.961.961,0,0,1,15,14Z" transform="translate(1101.938 321)"/>
  </g>
</svg>
